<svg xmlns="http://www.w3.org/2000/svg" width="798" height="800" viewBox="0 0 798 800" version="1.1"><path d="M 477.183 47.845 C 462.691 53.006, 456.508 68.364, 463.329 82.258 C 466.368 88.451, 470.762 92.466, 476.748 94.524 L 480.500 95.813 480.762 124.657 L 481.023 153.500 446.012 188.495 L 411 223.489 411 212.903 L 411 202.317 414.795 201.179 C 419.789 199.683, 426.549 193.805, 429.159 188.687 C 431.928 183.261, 431.981 173.997, 429.280 167.927 C 426.797 162.349, 419.393 155.481, 414.355 154.081 C 401.929 150.631, 388.272 156.899, 383.551 168.218 C 380.120 176.442, 382.491 188.670, 388.809 195.342 C 391.726 198.422, 397.987 202, 400.460 202 C 401.779 202, 402 204.187, 402 217.263 L 402 232.527 388 246.500 L 374 260.473 374 241.473 L 374 222.472 360.500 209 L 347 195.528 347 176.900 L 347 158.272 351.262 156.644 C 368 150.252, 372.597 130.478, 360.635 116.328 C 352.229 106.384, 334.897 106.257, 325.088 116.066 C 320.269 120.884, 318.044 126.393, 318.044 133.500 C 318.044 143.924, 324.075 152.954, 333.420 156.523 L 338 158.272 338 178.399 L 338 198.527 352 212.500 L 366 226.473 366 247.502 L 366 268.531 354 280.500 L 342 292.469 342 314.292 L 342 336.115 346.250 335.807 L 350.500 335.500 350.770 315.955 L 351.041 296.409 358.520 288.980 L 366 281.550 366 308.775 L 366 336 370 336 L 374 336 374 304.737 L 374 273.473 388 259.500 L 402 245.527 402 290.821 L 402 336.115 406.250 335.807 L 410.500 335.500 410.759 285.986 L 411.018 236.472 450.509 196.991 L 490 157.509 490 126.380 L 490 95.250 492.850 94.680 C 497.675 93.715, 504.273 87.934, 507.250 82.064 C 510.772 75.120, 510.898 68.471, 507.642 61.479 C 501.802 48.938, 489.533 43.446, 477.183 47.845 M 476.984 56.849 C 467.424 61.924, 466.084 77.201, 474.611 83.908 C 485.817 92.724, 501.231 85.181, 501.231 70.881 C 501.231 58.816, 487.859 51.077, 476.984 56.849 M 335.209 118.668 C 323.046 124.662, 323.333 142.721, 335.677 148.181 C 341.164 150.608, 347.818 150.247, 351.864 147.301 C 356.207 144.141, 359.201 137.300, 358.705 131.676 C 358.178 125.709, 355.693 122.169, 349.980 119.250 C 344.809 116.608, 339.790 116.410, 335.209 118.668 M 402.016 162.064 C 395.003 163.633, 388.971 173.704, 390.420 181.425 C 391.293 186.080, 396.115 191.553, 400.667 193.055 C 406.383 194.942, 413.563 193.783, 417.170 190.392 C 430.013 178.318, 419.254 158.206, 402.016 162.064 M 288 176.081 C 276.040 181.495, 270.473 193.877, 274.520 206.061 C 276.748 212.769, 283.980 220.315, 289.875 222.081 L 294 223.317 294 243.922 L 294 264.528 307.500 278 L 321 291.472 321 313.794 L 321 336.115 325.250 335.807 L 329.500 335.500 329.766 312 L 330.033 288.500 316.516 275.014 L 303 261.528 303 242.400 L 303 223.272 307.364 221.605 C 312.663 219.581, 318.613 213.908, 321.110 208.500 C 326.461 196.906, 319.861 180.589, 307.782 175.551 C 302.528 173.359, 293.477 173.602, 288 176.081 M 291.379 183.381 C 289.663 184.159, 286.970 186.484, 285.396 188.547 C 282.976 191.720, 282.531 193.243, 282.517 198.400 C 282.496 205.821, 285.188 210.273, 291.401 213.095 C 296.868 215.577, 300.796 215.471, 306.040 212.697 C 316.638 207.093, 317.961 192.648, 308.534 185.458 C 304.140 182.107, 296.290 181.156, 291.379 183.381 M 433.399 248.906 C 420.370 254.824, 414.936 270.046, 421.341 282.685 C 424.332 288.589, 429.868 293.565, 435.250 295.187 L 439 296.317 439 316.216 L 439 336.115 443.250 335.807 L 447.500 335.500 447.771 315.878 L 448.041 296.256 452.655 294.494 C 458.109 292.411, 464.345 286.504, 466.477 281.401 C 468.669 276.155, 468.441 266.542, 466.005 261.511 C 463.393 256.115, 458.474 251.143, 453.500 248.871 C 448.188 246.444, 438.783 246.461, 433.399 248.906 M 436 257.186 C 424.923 262.883, 424.073 277.739, 434.385 285.438 C 436.496 287.014, 438.643 287.500, 443.500 287.500 C 451.128 287.500, 454.394 285.547, 457.750 278.980 C 460.544 273.511, 460.589 269.849, 457.929 264.353 C 453.980 256.196, 444.163 252.988, 436 257.186 M 395.342 415.479 C 358.995 422.075, 334.507 446.839, 322.641 489 C 313.439 521.698, 316.182 572.301, 328.793 602.500 C 337.101 622.393, 351.705 638.747, 368.952 647.472 C 390.145 658.192, 424.345 658.145, 453.500 647.355 C 467.844 642.047, 487.444 630.414, 494.486 623.029 L 497.473 619.897 493.704 612.576 C 491.271 607.850, 487.458 602.737, 482.949 598.157 L 475.964 591.060 466.732 597.134 C 437.219 616.549, 413.217 620.863, 393.727 610.255 C 384.290 605.118, 372.859 589.005, 369.072 575.500 C 365.316 562.108, 364 536.396, 366.017 515.856 C 369.408 481.341, 377.920 462.595, 393.740 454.807 C 399.510 451.967, 401.564 451.508, 410.034 451.168 C 424.891 450.571, 434.161 453.901, 442.098 462.687 C 449.446 470.820, 453.948 484.448, 453.983 498.660 L 454 505.819 461.113 507.019 C 471.600 508.788, 479.497 507.995, 486.566 504.464 C 494.244 500.629, 497.283 495.156, 497.850 484.146 C 499.300 455.999, 479.693 430.554, 448.336 419.888 C 431.929 414.308, 411.270 412.589, 395.342 415.479 M 595.867 415.015 C 566.675 418.340, 542.742 433.343, 532.941 454.462 C 528.271 464.525, 527 470.556, 527 482.655 C 527 500.401, 531.735 511.889, 544.075 524.081 C 554.205 534.090, 562.224 538.620, 593.500 552.002 C 620.914 563.733, 627.059 567.025, 631.966 572.614 C 639.150 580.797, 641.811 591.970, 638.586 600.415 C 636.549 605.747, 629.742 612.295, 623.220 615.197 C 615.949 618.431, 597.562 618.889, 585 616.149 C 569.279 612.720, 555.276 607.177, 540.867 598.679 L 536.233 595.947 531.817 600.858 C 529.388 603.560, 525.967 608.460, 524.215 611.748 C 520.654 618.429, 517.378 629.801, 518.663 631.020 C 519.123 631.457, 524.068 634.363, 529.651 637.478 C 554.277 651.220, 584.573 657.592, 613.034 655.015 C 634.784 653.046, 650.307 647.806, 663.459 637.993 C 687.071 620.376, 694.950 584.684, 681.338 557 C 678.536 551.301, 675.592 547.453, 669.075 540.976 C 656.570 528.546, 650.651 525.296, 607.391 507.108 C 581.798 496.347, 574.777 490.359, 573.319 478.046 C 572.154 468.207, 580.105 457.456, 591.500 453.466 C 595.150 452.188, 599.606 451.716, 608 451.719 C 622.068 451.724, 635.560 454.725, 652.280 461.567 C 658.451 464.093, 664.219 466.383, 665.097 466.656 C 667.073 467.271, 673.608 460.078, 676.703 453.880 C 679.199 448.883, 682 438.871, 682 434.948 C 682 432.611, 681.075 431.910, 673.750 428.690 C 659.115 422.258, 645.881 418.180, 633 416.135 C 623.306 414.596, 604.522 414.029, 595.867 415.015 M 178.620 417.988 C 174.836 418.467, 171.391 419.229, 170.964 419.680 C 169.482 421.246, 95.155 647.239, 95.675 648.596 C 95.963 649.347, 97.842 650.453, 99.849 651.054 C 104.777 652.530, 125.106 653.316, 132.366 652.312 L 138.232 651.500 142.093 639 C 144.216 632.125, 147.800 620.200, 150.057 612.500 L 154.160 598.500 194.602 598.500 L 235.045 598.500 238.579 610 C 247.964 640.533, 250.421 646.012, 256.523 650.015 C 261.270 653.129, 271.342 654.419, 280.884 653.135 C 290.769 651.805, 298.499 648.744, 297.639 646.501 C 297.319 645.668, 285.596 609.777, 271.586 566.743 C 257.577 523.709, 241.027 472.903, 234.809 453.840 L 223.502 419.181 220.001 418.583 C 213.667 417.501, 185.640 417.098, 178.620 417.988 M 192.551 465.750 C 191.098 473.869, 177.634 522.873, 171.632 541.889 L 165.285 562 194.710 562 C 222.269 562, 224.101 561.889, 223.605 560.250 C 218.109 542.111, 201.406 484.268, 198.915 474.750 C 197.023 467.523, 195.068 462, 194.400 462 C 193.753 462, 192.920 463.688, 192.551 465.750" stroke="none" fill="#0d2d3d" fill-rule="evenodd"/><path d="M -0 400.001 L -0 800.002 399.250 799.751 L 798.500 799.500 798.751 399.750 L 799.002 0 399.501 0 L 0 0 -0 400.001 M 0.495 400.500 C 0.495 620.500, 0.610 710.351, 0.750 600.169 C 0.890 489.986, 0.890 309.986, 0.750 200.169 C 0.610 90.351, 0.495 180.500, 0.495 400.500 M 477.183 47.845 C 462.691 53.006, 456.508 68.364, 463.329 82.258 C 466.368 88.451, 470.762 92.466, 476.748 94.524 L 480.500 95.813 480.762 124.657 L 481.023 153.500 446.012 188.495 L 411 223.489 411 212.903 L 411 202.317 414.795 201.179 C 419.789 199.683, 426.549 193.805, 429.159 188.687 C 431.928 183.261, 431.981 173.997, 429.280 167.927 C 426.797 162.349, 419.393 155.481, 414.355 154.081 C 401.929 150.631, 388.272 156.899, 383.551 168.218 C 380.120 176.442, 382.491 188.670, 388.809 195.342 C 391.726 198.422, 397.987 202, 400.460 202 C 401.779 202, 402 204.187, 402 217.263 L 402 232.527 388 246.500 L 374 260.473 374 241.473 L 374 222.472 360.500 209 L 347 195.528 347 176.900 L 347 158.272 351.262 156.644 C 368 150.252, 372.597 130.478, 360.635 116.328 C 352.229 106.384, 334.897 106.257, 325.088 116.066 C 320.269 120.884, 318.044 126.393, 318.044 133.500 C 318.044 143.924, 324.075 152.954, 333.420 156.523 L 338 158.272 338 178.399 L 338 198.527 352 212.500 L 366 226.473 366 247.502 L 366 268.531 354 280.500 L 342 292.469 342 314.292 L 342 336.115 346.250 335.807 L 350.500 335.500 350.770 315.955 L 351.041 296.409 358.520 288.980 L 366 281.550 366 308.775 L 366 336 370 336 L 374 336 374 304.737 L 374 273.473 388 259.500 L 402 245.527 402 290.821 L 402 336.115 406.250 335.807 L 410.500 335.500 410.759 285.986 L 411.018 236.472 450.509 196.991 L 490 157.509 490 126.380 L 490 95.250 492.850 94.680 C 497.675 93.715, 504.273 87.934, 507.250 82.064 C 510.772 75.120, 510.898 68.471, 507.642 61.479 C 501.802 48.938, 489.533 43.446, 477.183 47.845 M 476.984 56.849 C 467.424 61.924, 466.084 77.201, 474.611 83.908 C 485.817 92.724, 501.231 85.181, 501.231 70.881 C 501.231 58.816, 487.859 51.077, 476.984 56.849 M 335.209 118.668 C 323.046 124.662, 323.333 142.721, 335.677 148.181 C 341.164 150.608, 347.818 150.247, 351.864 147.301 C 356.207 144.141, 359.201 137.300, 358.705 131.676 C 358.178 125.709, 355.693 122.169, 349.980 119.250 C 344.809 116.608, 339.790 116.410, 335.209 118.668 M 402.016 162.064 C 395.003 163.633, 388.971 173.704, 390.420 181.425 C 391.293 186.080, 396.115 191.553, 400.667 193.055 C 406.383 194.942, 413.563 193.783, 417.170 190.392 C 430.013 178.318, 419.254 158.206, 402.016 162.064 M 288 176.081 C 276.040 181.495, 270.473 193.877, 274.520 206.061 C 276.748 212.769, 283.980 220.315, 289.875 222.081 L 294 223.317 294 243.922 L 294 264.528 307.500 278 L 321 291.472 321 313.794 L 321 336.115 325.250 335.807 L 329.500 335.500 329.766 312 L 330.033 288.500 316.516 275.014 L 303 261.528 303 242.400 L 303 223.272 307.364 221.605 C 312.663 219.581, 318.613 213.908, 321.110 208.500 C 326.461 196.906, 319.861 180.589, 307.782 175.551 C 302.528 173.359, 293.477 173.602, 288 176.081 M 291.379 183.381 C 289.663 184.159, 286.970 186.484, 285.396 188.547 C 282.976 191.720, 282.531 193.243, 282.517 198.400 C 282.496 205.821, 285.188 210.273, 291.401 213.095 C 296.868 215.577, 300.796 215.471, 306.040 212.697 C 316.638 207.093, 317.961 192.648, 308.534 185.458 C 304.140 182.107, 296.290 181.156, 291.379 183.381 M 433.399 248.906 C 420.370 254.824, 414.936 270.046, 421.341 282.685 C 424.332 288.589, 429.868 293.565, 435.250 295.187 L 439 296.317 439 316.216 L 439 336.115 443.250 335.807 L 447.500 335.500 447.771 315.878 L 448.041 296.256 452.655 294.494 C 458.109 292.411, 464.345 286.504, 466.477 281.401 C 468.669 276.155, 468.441 266.542, 466.005 261.511 C 463.393 256.115, 458.474 251.143, 453.500 248.871 C 448.188 246.444, 438.783 246.461, 433.399 248.906 M 436 257.186 C 424.923 262.883, 424.073 277.739, 434.385 285.438 C 436.496 287.014, 438.643 287.500, 443.500 287.500 C 451.128 287.500, 454.394 285.547, 457.750 278.980 C 460.544 273.511, 460.589 269.849, 457.929 264.353 C 453.980 256.196, 444.163 252.988, 436 257.186 M 395.342 415.479 C 358.995 422.075, 334.507 446.839, 322.641 489 C 313.439 521.698, 316.182 572.301, 328.793 602.500 C 337.101 622.393, 351.705 638.747, 368.952 647.472 C 390.145 658.192, 424.345 658.145, 453.500 647.355 C 467.844 642.047, 487.444 630.414, 494.486 623.029 L 497.473 619.897 493.704 612.576 C 491.271 607.850, 487.458 602.737, 482.949 598.157 L 475.964 591.060 466.732 597.134 C 437.219 616.549, 413.217 620.863, 393.727 610.255 C 384.290 605.118, 372.859 589.005, 369.072 575.500 C 365.316 562.108, 364 536.396, 366.017 515.856 C 369.408 481.341, 377.920 462.595, 393.740 454.807 C 399.510 451.967, 401.564 451.508, 410.034 451.168 C 424.891 450.571, 434.161 453.901, 442.098 462.687 C 449.446 470.820, 453.948 484.448, 453.983 498.660 L 454 505.819 461.113 507.019 C 471.600 508.788, 479.497 507.995, 486.566 504.464 C 494.244 500.629, 497.283 495.156, 497.850 484.146 C 499.300 455.999, 479.693 430.554, 448.336 419.888 C 431.929 414.308, 411.270 412.589, 395.342 415.479 M 595.867 415.015 C 566.675 418.340, 542.742 433.343, 532.941 454.462 C 528.271 464.525, 527 470.556, 527 482.655 C 527 500.401, 531.735 511.889, 544.075 524.081 C 554.205 534.090, 562.224 538.620, 593.500 552.002 C 620.914 563.733, 627.059 567.025, 631.966 572.614 C 639.150 580.797, 641.811 591.970, 638.586 600.415 C 636.549 605.747, 629.742 612.295, 623.220 615.197 C 615.949 618.431, 597.562 618.889, 585 616.149 C 569.279 612.720, 555.276 607.177, 540.867 598.679 L 536.233 595.947 531.817 600.858 C 529.388 603.560, 525.967 608.460, 524.215 611.748 C 520.654 618.429, 517.378 629.801, 518.663 631.020 C 519.123 631.457, 524.068 634.363, 529.651 637.478 C 554.277 651.220, 584.573 657.592, 613.034 655.015 C 634.784 653.046, 650.307 647.806, 663.459 637.993 C 687.071 620.376, 694.950 584.684, 681.338 557 C 678.536 551.301, 675.592 547.453, 669.075 540.976 C 656.570 528.546, 650.651 525.296, 607.391 507.108 C 581.798 496.347, 574.777 490.359, 573.319 478.046 C 572.154 468.207, 580.105 457.456, 591.500 453.466 C 595.150 452.188, 599.606 451.716, 608 451.719 C 622.068 451.724, 635.560 454.725, 652.280 461.567 C 658.451 464.093, 664.219 466.383, 665.097 466.656 C 667.073 467.271, 673.608 460.078, 676.703 453.880 C 679.199 448.883, 682 438.871, 682 434.948 C 682 432.611, 681.075 431.910, 673.750 428.690 C 659.115 422.258, 645.881 418.180, 633 416.135 C 623.306 414.596, 604.522 414.029, 595.867 415.015 M 178.620 417.988 C 174.836 418.467, 171.391 419.229, 170.964 419.680 C 169.482 421.246, 95.155 647.239, 95.675 648.596 C 95.963 649.347, 97.842 650.453, 99.849 651.054 C 104.777 652.530, 125.106 653.316, 132.366 652.312 L 138.232 651.500 142.093 639 C 144.216 632.125, 147.800 620.200, 150.057 612.500 L 154.160 598.500 194.602 598.500 L 235.045 598.500 238.579 610 C 247.964 640.533, 250.421 646.012, 256.523 650.015 C 261.270 653.129, 271.342 654.419, 280.884 653.135 C 290.769 651.805, 298.499 648.744, 297.639 646.501 C 297.319 645.668, 285.596 609.777, 271.586 566.743 C 257.577 523.709, 241.027 472.903, 234.809 453.840 L 223.502 419.181 220.001 418.583 C 213.667 417.501, 185.640 417.098, 178.620 417.988 M 192.551 465.750 C 191.098 473.869, 177.634 522.873, 171.632 541.889 L 165.285 562 194.710 562 C 222.269 562, 224.101 561.889, 223.605 560.250 C 218.109 542.111, 201.406 484.268, 198.915 474.750 C 197.023 467.523, 195.068 462, 194.400 462 C 193.753 462, 192.920 463.688, 192.551 465.750" stroke="none" fill="#fbfbfb" fill-rule="evenodd"/></svg>